<svg width="1200" height="630" viewBox="0 0 1200 630" xmlns="http://www.w3.org/2000/svg">
  <!-- Background -->
  <rect width="1200" height="630" fill="#000000"/>
  
  <!-- Keffiyeh Pattern Background (subtle) -->
  <defs>
    <pattern id="keffiyeh" x="0" y="0" width="40" height="40" patternUnits="userSpaceOnUse">
      <rect width="40" height="40" fill="#111111"/>
      <path d="M0,20 L20,0 L40,20 L20,40 Z" fill="none" stroke="#222222" stroke-width="1"/>
      <circle cx="10" cy="10" r="2" fill="#333333"/>
      <circle cx="30" cy="30" r="2" fill="#333333"/>
    </pattern>
  </defs>
  <rect width="1200" height="630" fill="url(#keffiyeh)" opacity="0.3"/>
  
  <!-- D4P Logo inspired design -->
  <g transform="translate(600, 120)">
    <!-- D letter -->
    <g transform="translate(-100, 0)">
      <path d="M-25,-35 L-25,35 L0,35 C20,35 25,20 25,0 C25,-20 20,-35 0,-35 Z M-15,-25 L0,-25 C10,-25 15,-15 15,0 C15,15 10,25 0,25 L-15,25 Z" fill="#ffffff" stroke="#ffffff" stroke-width="2"/>
    </g>
    
    <!-- Hand/4 in middle -->
    <g transform="translate(0, 0)">
      <!-- Palm -->
      <ellipse cx="0" cy="5" rx="20" ry="25" fill="#ffffff"/>
      <!-- Fingers -->
      <rect x="-15" y="-30" width="6" height="20" rx="3" fill="#ffffff"/>
      <rect x="-5" y="-35" width="6" height="25" rx="3" fill="#ffffff"/>
      <rect x="5" y="-33" width="6" height="23" rx="3" fill="#ffffff"/>
      <rect x="15" y="-28" width="6" height="18" rx="3" fill="#ffffff"/>
      <!-- Thumb -->
      <ellipse cx="-25" cy="0" rx="4" ry="12" fill="#ffffff"/>
      <!-- Number 4 overlay -->
      <text x="0" y="8" text-anchor="middle" font-family="Arial, sans-serif" font-size="20" font-weight="bold" fill="#000000">4</text>
    </g>
    
    <!-- P letter -->
    <g transform="translate(100, 0)">
      <path d="M-25,-35 L-25,35 L-15,35 L-15,5 L5,5 C20,5 25,-5 25,-15 C25,-25 20,-35 5,-35 Z M-15,-25 L5,-25 C10,-25 15,-20 15,-15 C15,-10 10,-5 5,-5 L-15,-5 Z" fill="#ffffff" stroke="#ffffff" stroke-width="2"/>
    </g>
  </g>

  <!-- Main Title -->
  <text x="600" y="230" text-anchor="middle" font-family="Arial, sans-serif" font-size="64" font-weight="bold" fill="#ffffff">
    DRUMMERS FOR
  </text>
  <text x="600" y="300" text-anchor="middle" font-family="Arial, sans-serif" font-size="64" font-weight="bold" fill="#ef4444">
    PALESTINE
  </text>
  
  <!-- Subtitle -->
  <text x="600" y="350" text-anchor="middle" font-family="Arial, sans-serif" font-size="28" fill="#cccccc">
    UK's National Drumming Movement
  </text>
  
  <!-- Drum circles visualization -->
  <g transform="translate(600, 450)">
    <circle cx="-120" cy="0" r="25" fill="#ef4444" opacity="0.8"/>
    <text x="-120" y="5" text-anchor="middle" font-family="Arial, sans-serif" font-size="16" font-weight="bold" fill="#ffffff">1</text>
    
    <circle cx="-40" cy="0" r="20" fill="#6b7280" opacity="0.8"/>
    <text x="-40" y="5" text-anchor="middle" font-family="Arial, sans-serif" font-size="14" fill="#ffffff">2</text>
    
    <circle cx="40" cy="0" r="20" fill="#6b7280" opacity="0.8"/>
    <text x="40" y="5" text-anchor="middle" font-family="Arial, sans-serif" font-size="14" fill="#ffffff">3</text>
    
    <circle cx="120" cy="0" r="20" fill="#6b7280" opacity="0.8"/>
    <text x="120" y="5" text-anchor="middle" font-family="Arial, sans-serif" font-size="14" fill="#ffffff">4</text>
  </g>
  
  <!-- Bottom text -->
  <text x="600" y="550" text-anchor="middle" font-family="Arial, sans-serif" font-size="24" fill="#9ca3af">
    Learn • Practice • Play Together
  </text>
</svg>